<svg width="512" height="512" viewBox="0 0 512 512" xmlns="http://www.w3.org/2000/svg">
  <defs>
    <linearGradient id="bg" x1="0" y1="0" x2="1" y2="1">
      <stop offset="0%" stop-color="#12122f"/>
      <stop offset="100%" stop-color="#1a1a3e"/>
    </linearGradient>
  </defs>
  <rect width="512" height="512" rx="128" fill="url(#bg)"/>
  <g transform="translate(256,256)" fill="#7c8cf8">
    <rect x="-14" y="-155" width="28" height="70" rx="7" transform="rotate(0)"/>
    <rect x="-14" y="-155" width="28" height="70" rx="7" transform="rotate(45)"/>
    <rect x="-14" y="-155" width="28" height="70" rx="7" transform="rotate(90)"/>
    <rect x="-14" y="-155" width="28" height="70" rx="7" transform="rotate(135)"/>
    <rect x="-14" y="-155" width="28" height="70" rx="7" transform="rotate(180)"/>
    <rect x="-14" y="-155" width="28" height="70" rx="7" transform="rotate(225)"/>
    <rect x="-14" y="-155" width="28" height="70" rx="7" transform="rotate(270)"/>
    <rect x="-14" y="-155" width="28" height="70" rx="7" transform="rotate(315)"/>
    <circle cx="0" cy="0" r="70" fill="#12122f"/>
    <circle cx="0" cy="0" r="52" fill="none" stroke="#7c8cf8" stroke-width="10"/>
  </g>
</svg>
